<svg xmlns="http://www.w3.org/2000/svg" width="28" height="25" viewBox="0 0 28 25">
  <path id="bubble_icon" data-name="bubble icon" d="M120.562,1039.665c-4.326-.941-8.933-4.936-10.047-8.794-2.408-8.341,4.561-15.832,13.487-15.832a16.538,16.538,0,0,1,3.831.456,13,13,0,0,1,9.7,8.861,11.433,11.433,0,0,1-1.016,8.742,1.176,1.176,0,0,0-.113.915l1.622,5.416a.33.33,0,0,1-.344.4.406.406,0,0,1-.095-.011l-5.892-1.413a1.563,1.563,0,0,0-.358-.042,1.628,1.628,0,0,0-.708.164,15.161,15.161,0,0,1-6.624,1.508A16.174,16.174,0,0,1,120.562,1039.665Zm-6.081-18.715a10.01,10.01,0,0,0-2.1,9.478c.932,3.227,4.97,6.759,8.641,7.558a14.031,14.031,0,0,0,2.977.324,12.966,12.966,0,0,0,5.7-1.3,2.948,2.948,0,0,1,1.279-.293,2.861,2.861,0,0,1,.668.079l4.062.974L134.587,1034a2.147,2.147,0,0,1,.2-1.67,9.834,9.834,0,0,0,.872-7.548,11.116,11.116,0,0,0-8.33-7.616,14.375,14.375,0,0,0-3.323-.4h0A12.508,12.508,0,0,0,114.481,1020.95Z" transform="translate(-110.034 -1015.039)" fill="#404642"/>
</svg>
