<svg xmlns="http://www.w3.org/2000/svg" width="20" height="25" viewBox="0 0 20 25">
  <path id="fav_icon" data-name="fav icon" d="M704.114,1038a.866.866,0,0,1-.579-.224l-8.542-7.682-8.542,7.682a.861.861,0,0,1-.943.143.906.906,0,0,1-.516-.823V1013.9a.891.891,0,0,1,.879-.9h18.242a.892.892,0,0,1,.879.9v23.194a.906.906,0,0,1-.516.823A.866.866,0,0,1,704.114,1038Zm-9.121-10.008a.866.866,0,0,1,.579.223l7.662,6.891v-20.3H686.752v20.3l7.663-6.891A.865.865,0,0,1,694.993,1027.989Z" transform="translate(-684.993 -1012.998)" fill="#343333"/>
</svg>
