<svg xmlns="http://www.w3.org/2000/svg" width="35.681" height="7.993" viewBox="0 0 35.681 7.993">
  <path id="Path_38" data-name="Path 38" d="M7.6,1.688A4.279,4.279,0,0,1,4.551.524,3.788,3.788,0,0,1,3.315-2.347,3.668,3.668,0,0,1,4.551-5.18,4.361,4.361,0,0,1,7.6-6.305,4.214,4.214,0,0,1,10.608-5.18,3.726,3.726,0,0,1,11.8-2.347,3.85,3.85,0,0,1,10.608.524,4.136,4.136,0,0,1,7.6,1.688Zm13.6,0A4.279,4.279,0,0,1,18.148.524a3.788,3.788,0,0,1-1.236-2.871A3.668,3.668,0,0,1,18.148-5.18,4.361,4.361,0,0,1,21.2-6.305,4.214,4.214,0,0,1,24.2-5.18,3.726,3.726,0,0,1,25.4-2.347,3.85,3.85,0,0,1,24.2.524,4.136,4.136,0,0,1,21.2,1.688Zm13.6,0A4.279,4.279,0,0,1,31.745.524a3.788,3.788,0,0,1-1.236-2.871A3.668,3.668,0,0,1,31.745-5.18a4.361,4.361,0,0,1,3.049-1.125A4.214,4.214,0,0,1,37.8-5.18,3.726,3.726,0,0,1,39-2.347,3.85,3.85,0,0,1,37.8.524,4.136,4.136,0,0,1,34.794,1.688Z" transform="translate(-3.315 6.305)" fill="#404642"/>
</svg>
