<svg xmlns="http://www.w3.org/2000/svg" width="29.539" height="26.5" viewBox="0 0 29.539 26.5">
  <path id="heart_icon_liked" data-name="heart icon liked" d="M48.064,1016a7.6,7.6,0,0,0-6.141,3.281A7.6,7.6,0,0,0,35.782,1016a7.2,7.2,0,0,0-3.921,1.177c-3.766,2.429-5.056,7.808-2.882,12.014,1.773,3.43,9.259,9.388,11.964,11.472a1.594,1.594,0,0,0,1.96,0c2.7-2.083,10.191-8.041,11.964-11.472,2.174-4.206.884-9.586-2.882-12.014A7.2,7.2,0,0,0,48.064,1016Z" transform="translate(-27.154 -1015.25)" fill="#fff" stroke="#404642" stroke-width="1.5"/>
</svg>
