<svg xmlns="http://www.w3.org/2000/svg" width="28.35" height="28.51" viewBox="0 0 28.35 28.51">
  <path id="home_icon" data-name="home icon" d="M66.177,1265.881a1.826,1.826,0,0,0-1.285.525l-11.938,11.762c-.609.6-.952.8-.952,1.644v13.782c0,1.062.874.756,1.952.756h7.062c1.078,0,1.952.306,1.952-.756v-7.552c0-1.4,1.785-2.539,3.209-2.539s3.208,1.137,3.208,2.539v7.552c0,1.062.874.756,1.952.756H78.4c1.078,0,1.952.306,1.952-.756v-13.782c0-.849-.343-1.044-.952-1.644l-11.938-11.762a1.825,1.825,0,0,0-1.285-.525" transform="translate(-52.002 -1265.881)" fill="#343333"/>
</svg>
