<svg xmlns="http://www.w3.org/2000/svg" width="6.305" height="28.145" viewBox="0 0 6.305 28.145">
  <path id="options" d="M6.7,0A3.375,3.375,0,0,1,4.29-.918a2.988,2.988,0,0,1-.975-2.265A2.893,2.893,0,0,1,4.29-5.417,3.44,3.44,0,0,1,6.7-6.305a3.324,3.324,0,0,1,2.372.888,2.939,2.939,0,0,1,.943,2.234A3.037,3.037,0,0,1,9.068-.918,3.262,3.262,0,0,1,6.7,0ZM17.42,0a3.375,3.375,0,0,1-2.405-.918,2.988,2.988,0,0,1-.975-2.265,2.893,2.893,0,0,1,.975-2.234,3.44,3.44,0,0,1,2.405-.888,3.324,3.324,0,0,1,2.372.888,2.939,2.939,0,0,1,.943,2.234,3.037,3.037,0,0,1-.943,2.265A3.262,3.262,0,0,1,17.42,0ZM28.145,0a3.375,3.375,0,0,1-2.4-.918,2.988,2.988,0,0,1-.975-2.265,2.893,2.893,0,0,1,.975-2.234,3.44,3.44,0,0,1,2.4-.888,3.324,3.324,0,0,1,2.373.888,2.939,2.939,0,0,1,.943,2.234,3.037,3.037,0,0,1-.943,2.265A3.262,3.262,0,0,1,28.145,0Z" transform="translate(0 -3.315) rotate(90)" fill="#404642"/>
</svg>
