<svg xmlns="http://www.w3.org/2000/svg" width="29.92" height="30.076" viewBox="0 0 29.92 30.076">
  <g id="search001_-_E000" data-name="search001 - E000" transform="translate(0.65 0.65)">
    <path id="search001_-_E000-2" data-name="search001 - E000" d="M5.437-36.919A12.242,12.242,0,0,0-6.821-49.2,12.242,12.242,0,0,0-19.08-36.919,12.233,12.233,0,0,0-6.821-24.683a12.325,12.325,0,0,0,8.447-3.343l7.333,7.333.312-.312L1.938-28.338A12.227,12.227,0,0,0,5.437-36.919ZM-2.208-26.065a11.616,11.616,0,0,1-4.614.936,11.886,11.886,0,0,1-4.591-.914,11.914,11.914,0,0,1-3.744-2.519A11.953,11.953,0,0,1-17.7-32.328a11.509,11.509,0,0,1-.936-4.591,11.616,11.616,0,0,1,.936-4.614A12.012,12.012,0,0,1-15.18-45.3a11.435,11.435,0,0,1,3.744-2.519,11.7,11.7,0,0,1,4.614-.936,11.616,11.616,0,0,1,4.614.936A11.549,11.549,0,0,1,1.537-45.3a12.171,12.171,0,0,1,1.449,1.761A11.864,11.864,0,0,1,4.078-41.51a11.969,11.969,0,0,1,.914,4.591,11.858,11.858,0,0,1-.914,4.569,11.435,11.435,0,0,1-2.519,3.744A11.991,11.991,0,0,1-.179-27.157,11.864,11.864,0,0,1-2.208-26.065Z" transform="translate(19.08 49.2)" stroke="#404642" stroke-width="1.3"/>
  </g>
</svg>
