<svg xmlns="http://www.w3.org/2000/svg" width="28" height="25" viewBox="0 0 28 25">
  <path id="Path_41" data-name="Path 41" d="M5.59,29.109V23.847c0-7.087,6.21-12.835,13.867-12.835h1.62V4.63a.569.569,0,0,1,.977-.351L33.444,15.84a.493.493,0,0,1,0,.7L22.054,28.1a.569.569,0,0,1-.977-.351V21.367A18.658,18.658,0,0,0,7.889,26.775ZM19.457,12.352C12.6,12.352,7.037,17.5,7.037,23.847v1.808a20.2,20.2,0,0,1,14.1-5.628h1.386v5.61l9.307-9.447L22.522,6.742v5.61Z" transform="translate(-5.59 -4.109)" fill="#404642"/>
</svg>
